<?xml version="1.0" encoding="utf-8"?>
<svg id="Calque_1" data-name="Calque 1" xmlns="http://www.w3.org/2000/svg" viewBox="0 0 439.06 121.83"><defs><style>.cls-1{fill:#028da5;}</style></defs><title>Logo Energisme 2019 turquoise</title><path class="cls-1" d="M275.77,96.43A20.25,20.25,0,1,0,296,116.67,20.24,20.24,0,0,0,275.77,96.43Zm0,32.18a12,12,0,1,1,12-12A12,12,0,0,1,275.79,128.61Z" transform="translate(-26.06 -96.43)"/><path class="cls-1" d="M47.86,142a21,21,0,0,1,15.45,6.46,21.48,21.48,0,0,1,4.67,7,21,21,0,0,1,1.68,8.29v5.12a4.37,4.37,0,0,1-4.45,4.45H34.76V175a12.56,12.56,0,0,0,1.05,5.06,13.44,13.44,0,0,0,7,7,12.28,12.28,0,0,0,5.06,1.06H59.34a4.17,4.17,0,0,1,3.06,1.16,4.11,4.11,0,0,1,1.17,3,4.29,4.29,0,0,1-1.17,3.17,4.13,4.13,0,0,1-3.06,1.16H47.88a21.56,21.56,0,0,1-15.41-6.29,22.28,22.28,0,0,1-4.68-6.9A21.06,21.06,0,0,1,26.06,175V163.6a21.66,21.66,0,0,1,1.61-8.34,20.67,20.67,0,0,1,4.85-7v.11a20.59,20.59,0,0,1,7.06-4.84A22.8,22.8,0,0,1,47.86,142Zm13,21.7a13,13,0,0,0-3.88-9.23,12.09,12.09,0,0,0-9.09-3.78,12.46,12.46,0,0,0-9.21,3.78,13,13,0,0,0-2.88,4.28,12.58,12.58,0,0,0-1,4.95v.89H60.82Z" transform="translate(-26.06 -96.43)"/><path class="cls-1" d="M102.19,142a17.88,17.88,0,0,1,7.15,1.44,19.11,19.11,0,0,1,5.87,3.9,18,18,0,0,1,4,5.79,17.64,17.64,0,0,1,1.45,7.12v32.15a4,4,0,0,1-1.34,3.17,4.3,4.3,0,0,1-2.91,1.17,4.79,4.79,0,0,1-3.3-1.17,4,4,0,0,1-1.28-3.16V160.21a8.89,8.89,0,0,0-.78-3.72,10.07,10.07,0,0,0-2.06-3,10.47,10.47,0,0,0-3-2.06,9,9,0,0,0-3.73-.78H95.31a9.07,9.07,0,0,0-6.63,2.72,9.85,9.85,0,0,0-3,6.62v32.37a4.16,4.16,0,0,1-1.23,3.16,4.36,4.36,0,0,1-3.13,1.16,4.59,4.59,0,0,1-3.19-1.16,4,4,0,0,1-1.29-3.18v-46a4,4,0,0,1,1.28-3.17A4.49,4.49,0,0,1,81.33,142a3.85,3.85,0,0,1,4.11,2.78A17.86,17.86,0,0,1,95.27,142Z" transform="translate(-26.06 -96.43)"/><path class="cls-1" d="M150.62,142a21,21,0,0,1,15.46,6.46,21.64,21.64,0,0,1,4.67,7,21,21,0,0,1,1.67,8.29v5.12a4.37,4.37,0,0,1-4.44,4.45H137.53V175a12.4,12.4,0,0,0,1.05,5.06,13.35,13.35,0,0,0,7,7,12.28,12.28,0,0,0,5.06,1.06h11.46a4.17,4.17,0,0,1,3.06,1.16,4.1,4.1,0,0,1,1.16,3,4.32,4.32,0,0,1-1.16,3.17,4.13,4.13,0,0,1-3.06,1.16H150.65a21.56,21.56,0,0,1-15.41-6.29,22.28,22.28,0,0,1-4.68-6.9,21.06,21.06,0,0,1-1.73-8.51V163.6a21.48,21.48,0,0,1,1.61-8.34,20.67,20.67,0,0,1,4.85-7v.11a20.49,20.49,0,0,1,7.06-4.84A22.67,22.67,0,0,1,150.62,142Zm13,21.7a12.83,12.83,0,0,0-1-4.95,13.09,13.09,0,0,0-2.9-4.28,12.07,12.07,0,0,0-9.09-3.78,12.49,12.49,0,0,0-9.21,3.78,13.35,13.35,0,0,0-2.88,4.28,12.75,12.75,0,0,0-1,4.95v.89h26.06Z" transform="translate(-26.06 -96.43)"/><path class="cls-1" d="M206.11,142a4.14,4.14,0,0,1,3.06,1.17,4.29,4.29,0,0,1,1.16,3.18,4.36,4.36,0,0,1-1.16,3.11,4,4,0,0,1-3.06,1.23H199a10.06,10.06,0,0,0-3.62.66,7.81,7.81,0,0,0-3,2,9.67,9.67,0,0,0-2.89,6.68v32.37a4,4,0,0,1-1.3,3.16,4.53,4.53,0,0,1-3.18,1.16,4.61,4.61,0,0,1-3-1.16,3.94,3.94,0,0,1-1.4-3.18v-46a3.9,3.9,0,0,1,1.4-3.17,4.57,4.57,0,0,1,3-1.17,4.5,4.5,0,0,1,2.63.72,4.88,4.88,0,0,1,1.62,1.94A18.17,18.17,0,0,1,199,142Z" transform="translate(-26.06 -96.43)"/><path class="cls-1" d="M256.84,196.65a20.53,20.53,0,0,1-1.74,8.46,21.93,21.93,0,0,1-4.75,6.85,22.29,22.29,0,0,1-15.54,6.3h-13.3a4.49,4.49,0,0,1-3-1.17,3.86,3.86,0,0,1-1.33-3,4,4,0,0,1,1.33-3.17,4.43,4.43,0,0,1,3-1.16h13.3a12.49,12.49,0,0,0,5-1,13.91,13.91,0,0,0,4.2-2.78,13.06,13.06,0,0,0,2.9-4.19,12.21,12.21,0,0,0,1.07-5.07v-4.16a20.61,20.61,0,0,1-13.16,4.22,21.58,21.58,0,0,1-8.36-1.67,20.39,20.39,0,0,1-6.92-4.67v.11a19.2,19.2,0,0,1-4.85-7.07,22.45,22.45,0,0,1-1.62-8.4V163.67a21.59,21.59,0,0,1,1.62-8.28,19.48,19.48,0,0,1,4.85-7h-.1a19.4,19.4,0,0,1,7-4.84,22.14,22.14,0,0,1,8.37-1.61,21.15,21.15,0,0,1,7,1.17,24.49,24.49,0,0,1,6.14,3.18A4.05,4.05,0,0,1,252.4,142a4.54,4.54,0,0,1,3.18,1.17,4.1,4.1,0,0,1,1.3,3.18v50.32Zm-22-8.5a12.15,12.15,0,0,0,5-1.06,14.35,14.35,0,0,0,4.18-2.83,13.13,13.13,0,0,0,2.9-4.17A12.16,12.16,0,0,0,248,175V163.67a12.13,12.13,0,0,0-1.07-5.06,12.35,12.35,0,0,0-2.9-4.12,15.28,15.28,0,0,0-4.18-2.79,12,12,0,0,0-5-1,13.54,13.54,0,0,0-9.36,3.89v-.1a11.9,11.9,0,0,0-2.8,4.29,14.2,14.2,0,0,0-.89,5V175a13.2,13.2,0,0,0,3.68,9.23A13.57,13.57,0,0,0,234.84,188.15Z" transform="translate(-26.06 -96.43)"/><path class="cls-1" d="M324.26,175.76a12,12,0,0,1,.11,17.37,11.2,11.2,0,0,1-8.55,3.55H295.44a4.17,4.17,0,0,1-3.06-1.16,4.23,4.23,0,0,1-1.16-3.16,4,4,0,0,1,4.22-4.21h20.38a3,3,0,0,0,1.39-.39c.47-.26.94-.5,1.39-.73a2.43,2.43,0,0,0,.6-1.17,6,6,0,0,0,.12-1.17,5.24,5.24,0,0,0-.89-2.68q-5.46-4.68-11-9.52t-10.93-9.64a11.9,11.9,0,0,1-3.8-8.91,11.26,11.26,0,0,1,1-4.68,14.28,14.28,0,0,1,2.57-3.9,11.41,11.41,0,0,1,8.72-3.57h17.86A4.5,4.5,0,0,1,326,143a4,4,0,0,1,1.29,3.06,4.21,4.21,0,0,1-1.29,3.29,4.53,4.53,0,0,1-3.17,1.17H305a3.4,3.4,0,0,0-2.56,1,3.74,3.74,0,0,0-.91,2.45,2.85,2.85,0,0,0,.73,2.34c.07.07,1.95,1.73,5.64,4.95S317,169.31,324.26,175.76Z" transform="translate(-26.06 -96.43)"/><path class="cls-1" d="M393.28,142a17.52,17.52,0,0,1,7,1.44,18.74,18.74,0,0,1,9.84,9.69,17.19,17.19,0,0,1,1.5,7.12v32.15a4.05,4.05,0,0,1-1.28,3.17,4.52,4.52,0,0,1-3.19,1.17,4.45,4.45,0,0,1-3.14-1.17,4.15,4.15,0,0,1-1.23-3.16V160.21a8.88,8.88,0,0,0-.77-3.72,10.23,10.23,0,0,0-2-3,10.07,10.07,0,0,0-3-2.06,8.84,8.84,0,0,0-3.71-.78h-4.21a8.92,8.92,0,0,0-3.72.78,10.2,10.2,0,0,0-3,2.06,9.36,9.36,0,0,0-2,3,9.75,9.75,0,0,0-.72,3.72v32.15a3.88,3.88,0,0,1-1.4,3.16,4.65,4.65,0,0,1-6.15,0,4.07,4.07,0,0,1-1.3-3.16V160.21a8.59,8.59,0,0,0-.78-3.72,9.84,9.84,0,0,0-2-3,10.2,10.2,0,0,0-3-2.06,8.92,8.92,0,0,0-3.72-.78h-4.32a8.84,8.84,0,0,0-6.56,2.72,10,10,0,0,0-2.89,6.62v32.37a4,4,0,0,1-1.28,3.16,4.57,4.57,0,0,1-3.18,1.16,4.17,4.17,0,0,1-3.06-1.16,4.3,4.3,0,0,1-1.17-3.18v-46a4.26,4.26,0,0,1,1.17-3.17,4.56,4.56,0,0,1,7.29,1.72,16.75,16.75,0,0,1,9.68-2.89h4.33a17.62,17.62,0,0,1,7.85,1.77,20.06,20.06,0,0,1,6.18,4.67,20.24,20.24,0,0,1,6.05-4.67,16.93,16.93,0,0,1,7.73-1.77Z" transform="translate(-26.06 -96.43)"/><path class="cls-1" d="M443.32,142a21,21,0,0,1,15.45,6.46,21.48,21.48,0,0,1,4.67,7,21,21,0,0,1,1.67,8.29v5.12a4.37,4.37,0,0,1-4.44,4.45H430.22V175a12.24,12.24,0,0,0,1,5.06,13.44,13.44,0,0,0,7,7,12.28,12.28,0,0,0,5.06,1.06h11.45a4.17,4.17,0,0,1,3.06,1.16,4.1,4.1,0,0,1,1.16,3,4.32,4.32,0,0,1-1.16,3.17,4.13,4.13,0,0,1-3.06,1.16H443.34a21.64,21.64,0,0,1-8.51-1.67,21.93,21.93,0,0,1-6.91-4.62,22.25,22.25,0,0,1-4.67-6.9,21.06,21.06,0,0,1-1.73-8.51V163.6a21.48,21.48,0,0,1,1.61-8.34,20.78,20.78,0,0,1,4.84-7v.11a20.59,20.59,0,0,1,7.06-4.84A22.74,22.74,0,0,1,443.32,142Zm13,21.7a12.66,12.66,0,0,0-1-4.95,13.35,13.35,0,0,0-2.88-4.28,12.16,12.16,0,0,0-9.11-3.78,12.49,12.49,0,0,0-9.21,3.78,13.54,13.54,0,0,0-2.89,4.28,12.76,12.76,0,0,0-1,4.95v.89h26.07v-.89Z" transform="translate(-26.06 -96.43)"/><path class="cls-1" d="M278.51,143.59a4.13,4.13,0,0,0-3.06-1.16,4.62,4.62,0,0,0-3.18,1.16,4,4,0,0,0-1.26,3.08v45.92a4.3,4.3,0,0,0,1.17,3.18,4.13,4.13,0,0,0,3.06,1.16,4.59,4.59,0,0,0,3.17-1.16,4,4,0,0,0,1.27-3.08V146.77A4.3,4.3,0,0,0,278.51,143.59Z" transform="translate(-26.06 -96.43)"/></svg>